<?xml version="1.0" encoding="UTF-8" standalone="no"?>
<svg
   xmlns:dc="http://purl.org/dc/elements/1.1/"
   xmlns:cc="http://creativecommons.org/ns#"
   xmlns:rdf="http://www.w3.org/1999/02/22-rdf-syntax-ns#"
   xmlns:svg="http://www.w3.org/2000/svg"
   xmlns="http://www.w3.org/2000/svg"
   xmlns:sodipodi="http://sodipodi.sourceforge.net/DTD/sodipodi-0.dtd"
   xmlns:inkscape="http://www.inkscape.org/namespaces/inkscape"
   viewBox="0 0 200 200"
   fill="#000000"
   width="200"
   height="200"
   version="1.1"
   id="svg6"
   sodipodi:docname="shopping_car.svg"
   inkscape:export-filename="C:\Users\matus.nadzady\Desktop\WEGA projekt\Webstránka\assets\shopping_car.png"
   inkscape:export-xdpi="96"
   inkscape:export-ydpi="96"
   inkscape:version="1.0.1 (3bc2e813f5, 2020-09-07)">
  <metadata
     id="metadata12">
    <rdf:RDF>
      <cc:Work
         rdf:about="">
        <dc:format>image/svg+xml</dc:format>
        <dc:type
           rdf:resource="http://purl.org/dc/dcmitype/StillImage" />
        <dc:title></dc:title>
      </cc:Work>
    </rdf:RDF>
  </metadata>
  <defs
     id="defs10" />
  <sodipodi:namedview
     pagecolor="#ffffff"
     bordercolor="#666666"
     borderopacity="1"
     objecttolerance="10"
     gridtolerance="10"
     guidetolerance="10"
     inkscape:pageopacity="0"
     inkscape:pageshadow="2"
     inkscape:window-width="1920"
     inkscape:window-height="1001"
     id="namedview8"
     showgrid="false"
     inkscape:zoom="2.1614583"
     inkscape:cx="32.935998"
     inkscape:cy="128.88182"
     inkscape:window-x="-9"
     inkscape:window-y="342"
     inkscape:window-maximized="1"
     inkscape:current-layer="svg6"
     inkscape:document-rotation="0"
     inkscape:snap-global="false" />
  <path
     d="M 0,0 H 24 V 24 H 0 Z"
     fill="none"
     id="path2" />
  <path
     d="m 60.861141,158.70828 c -10.763186,0 -19.471583,8.80625 -19.471583,19.56943 0,10.76319 8.708395,19.56944 19.471583,19.56944 10.763183,0 19.569428,-8.80625 19.569428,-19.56944 0,-10.76319 -8.806245,-19.56943 -19.569428,-19.56943 z M 2.1528532,2.1528532 V 21.722284 H 21.722284 l 35.224968,74.26598 -13.209365,23.972556 c -1.565554,2.73971 -2.446179,5.96867 -2.446179,9.39333 0,10.76318 8.806245,19.56942 19.569431,19.56942 H 178.27771 V 129.35415 H 64.970719 c -1.369862,0 -2.446178,-1.07632 -2.446178,-2.44619 l 0.293541,-1.17416 8.806242,-15.94909 h 72.896126 c 7.33853,0 13.79644,-4.01173 17.12325,-10.078256 l 35.02928,-63.502795 c 0.78278,-1.369861 1.17417,-3.033262 1.17417,-4.696665 0,-5.381592 -4.40312,-9.784712 -9.78472,-9.784712 H 43.346501 L 34.148869,2.1528532 Z M 158.70828,158.70828 c -10.76318,0 -19.47157,8.80625 -19.47157,19.56943 0,10.76319 8.70839,19.56944 19.47157,19.56944 10.76319,0 19.56943,-8.80625 19.56943,-19.56944 0,-10.76319 -8.80624,-19.56943 -19.56943,-19.56943 z"
     id="path4"
     style="stroke-width:9.78472" />
</svg>
